<svg class="w-full" viewBox="0 0 379 70" fill="none" xmlns="http://www.w3.org/2000/svg"><g clip-path="url(#clip0_2119_894)"><path fill-rule="evenodd" clip-rule="evenodd" d="M370.449 55.6053V54.568H371.114C371.477 54.568 371.971 54.5957 371.971 55.0393C371.971 55.5198 371.717 55.6053 371.287 55.6053H370.449ZM370.449 56.333H370.892L371.925 58.1442H373.057L371.916 56.2591C372.505 56.2152 372.99 55.9356 372.99 55.1409C372.99 54.1545 372.309 53.8356 371.158 53.8356H369.492V58.1442H370.449V56.333ZM375.296 55.9957C375.296 53.466 373.33 51.999 371.137 51.999C368.931 51.999 366.967 53.466 366.967 55.9957C366.967 58.5254 368.931 59.9993 371.137 59.9993C373.327 59.9993 375.296 58.5254 375.296 55.9957ZM374.094 55.9957C374.094 57.8393 372.738 59.0775 371.137 59.0775V59.0637C369.49 59.0775 368.159 57.8393 368.159 55.9957C368.159 54.1545 369.492 52.9208 371.137 52.9208C372.741 52.9208 374.094 54.1545 374.094 55.9957Z" fill="#111111"></path><path fill-rule="evenodd" clip-rule="evenodd" d="M222.645 13.1854L222.65 58.6044H235.476V13.1854H222.645ZM121.742 13.1254V58.6044H134.686V23.3019L144.782 23.3342C148.101 23.3342 150.395 24.1313 151.996 25.8385C154.027 28.0009 154.854 31.4847 154.854 37.8632V58.6044H167.392V33.4761C167.392 15.5418 155.961 13.123 144.777 13.123H121.744L121.742 13.1254ZM243.299 13.1877V58.6044H264.104C275.189 58.6044 278.807 56.7608 282.718 52.6278C285.486 49.7262 287.271 43.3546 287.271 36.3939C287.271 30.0108 285.758 24.3161 283.12 20.7699C278.368 14.4283 271.523 13.1877 261.3 13.1877H243.299ZM256.023 23.0755H261.538C269.538 23.0755 274.713 26.6702 274.713 35.9919C274.713 45.3183 269.538 48.9107 261.538 48.9107H256.023V23.0755ZM204.152 13.1877L193.446 49.181L183.189 13.19L169.344 13.1877L183.991 58.6044H202.479L217.244 13.1877H204.152ZM293.241 58.6044H306.07V13.19L293.236 13.1877L293.241 58.6044ZM329.197 13.2039L311.286 58.5882H323.935L326.769 50.5671H347.965L350.648 58.5882H364.38L346.332 13.2016L329.197 13.2039ZM337.523 21.486L345.295 42.7493H329.509L337.523 21.486Z" fill="#111111"></path><path fill-rule="evenodd" clip-rule="evenodd" d="M39.0173 20.7581V14.509C39.6226 14.4628 40.2371 14.4327 40.8609 14.412C57.9565 13.876 69.1726 29.1027 69.1726 29.1027C69.1726 29.1027 57.0578 45.9257 44.0698 45.9257C42.3533 45.9326 40.646 45.66 39.0173 45.1171V26.1641C45.6708 26.968 47.0107 29.9066 51.012 36.5785L59.911 29.0749C59.911 29.0749 53.4146 20.5548 42.4642 20.5548C41.2744 20.5548 40.1355 20.638 39.0173 20.7581ZM39.0173 0.109375V9.4496C39.6295 9.40109 40.2441 9.36181 40.8609 9.33871C64.6331 8.53937 80.1231 28.837 80.1231 28.837C80.1231 28.837 62.3344 50.4699 43.7995 50.4699C42.1015 50.4699 40.5097 50.3128 39.0173 50.0471V55.8181C40.2949 55.9798 41.6186 56.0768 43.0002 56.0768C60.246 56.0768 72.7188 47.2702 84.7967 36.8442C86.7996 38.4475 94.9986 42.3495 96.6828 44.059C85.1987 53.6695 58.437 61.4203 43.2635 61.4203C41.845 61.4157 40.4289 61.3418 39.0173 61.1986V69.3074H104.57V0.109375H39.0173ZM39.0173 45.1171V50.0471C23.0653 47.2055 18.6366 30.6205 18.6366 30.6205C18.6366 30.6205 26.2973 22.1327 39.0173 20.7581V26.1641L38.9919 26.1617C32.3154 25.3601 27.1012 31.5977 27.1012 31.5977C27.1012 31.5977 30.0236 42.0953 39.0173 45.1171ZM10.6848 29.902C10.6848 29.902 20.1382 15.9483 39.0173 14.509V9.44498C18.1075 11.1245 0 28.8324 0 28.8324C0 28.8324 10.2551 58.4794 39.0173 61.1939V55.8181C17.9111 53.1636 10.6848 29.902 10.6848 29.902Z" fill="#111111"></path></g><defs><clipPath id="clip0_2119_894"><rect width="378.876" height="69.3066" fill="white"></rect></clipPath></defs></svg>